<svg width="26" height="26" viewBox="0 0 26 26" fill="none" xmlns="http://www.w3.org/2000/svg">
<circle cx="13" cy="13" r="12.5" fill="#D9D9D9" stroke="#257FD2"/>
<g clip-path="url(#clip0_16_41)">
<path d="M21 12.0001C21 12.2653 20.8946 12.5197 20.7071 12.7072C20.5196 12.8947 20.2652 13.0001 20 13.0001V16.5001C20 17.3181 19.607 18.0441 19 18.5001V20.5001C19 20.6327 18.9473 20.7599 18.8536 20.8536C18.7598 20.9474 18.6326 21.0001 18.5 21.0001H16.5C16.3674 21.0001 16.2402 20.9474 16.1464 20.8536C16.0527 20.7599 16 20.6327 16 20.5001V19.0001H10V20.5001C10 20.6327 9.94732 20.7599 9.85355 20.8536C9.75979 20.9474 9.63261 21.0001 9.5 21.0001H7.5C7.36739 21.0001 7.24021 20.9474 7.14645 20.8536C7.05268 20.7599 7 20.6327 7 20.5001V18.5001C6.68951 18.2672 6.4375 17.9653 6.26393 17.6181C6.09036 17.271 6 16.8882 6 16.5001V13.0001C5.73478 13.0001 5.48043 12.8947 5.29289 12.7072C5.10536 12.5197 5 12.2653 5 12.0001V10.0001C5 9.73487 5.10536 9.48051 5.29289 9.29298C5.48043 9.10544 5.73478 9.00008 6 9.00008V7.64008C6 6.45208 6.845 5.40808 8.064 5.26808C9.70301 5.08632 11.3509 4.99685 13 5.00008C15.1 5.00008 16.792 5.13608 17.936 5.26808C19.155 5.40808 20 6.45208 20 7.64008V9.00008C20.2652 9.00008 20.5196 9.10544 20.7071 9.29298C20.8946 9.48051 21 9.73487 21 10.0001V12.0001ZM8.552 8.22008C10.0299 8.06997 11.5145 7.99654 13 8.00008C14.837 8.00008 16.353 8.10708 17.448 8.22008C17.5774 8.2292 17.7052 8.18771 17.8045 8.10436C17.9039 8.02101 17.9669 7.90232 17.9804 7.77335C17.9939 7.64438 17.9568 7.51521 17.8769 7.41311C17.7969 7.311 17.6804 7.24394 17.552 7.22608C16.0396 7.07216 14.5202 6.99673 13 7.00008C11.124 7.00008 9.574 7.10908 8.448 7.22608C8.38108 7.2308 8.31579 7.24894 8.25603 7.27941C8.19626 7.30988 8.14324 7.35207 8.10012 7.40347C8.057 7.45486 8.02466 7.51441 8.00503 7.57856C7.9854 7.64271 7.97888 7.71015 7.98587 7.77688C7.99285 7.8436 8.01318 7.90824 8.04567 7.96693C8.07815 8.02563 8.12211 8.0772 8.17493 8.11855C8.22776 8.15991 8.28837 8.19021 8.35315 8.20765C8.41792 8.22509 8.48555 8.22932 8.552 8.22008ZM13 9.00008C11.124 9.00008 9.574 9.10908 8.448 9.22608C8.32511 9.23893 8.21134 9.29683 8.12861 9.3886C8.04589 9.48038 8.00007 9.59953 8 9.72308V13.2771C8.00007 13.4006 8.04589 13.5198 8.12861 13.6116C8.21134 13.7033 8.32511 13.7612 8.448 13.7741C9.574 13.8911 11.124 14.0001 13 14.0001C14.876 14.0001 16.426 13.8911 17.552 13.7741C17.6749 13.7612 17.7887 13.7033 17.8714 13.6116C17.9541 13.5198 17.9999 13.4006 18 13.2771V9.72308C17.9999 9.59953 17.9541 9.48038 17.8714 9.3886C17.7887 9.29683 17.6749 9.23893 17.552 9.22608C16.0396 9.07216 14.5202 8.99673 13 9.00008ZM10 16.0001C10 15.7349 9.89464 15.4805 9.70711 15.293C9.51957 15.1054 9.26522 15.0001 9 15.0001C8.73478 15.0001 8.48043 15.1054 8.29289 15.293C8.10536 15.4805 8 15.7349 8 16.0001C8 16.2653 8.10536 16.5197 8.29289 16.7072C8.48043 16.8947 8.73478 17.0001 9 17.0001C9.26522 17.0001 9.51957 16.8947 9.70711 16.7072C9.89464 16.5197 10 16.2653 10 16.0001ZM18 16.0001C18 15.7349 17.8946 15.4805 17.7071 15.293C17.5196 15.1054 17.2652 15.0001 17 15.0001C16.7348 15.0001 16.4804 15.1054 16.2929 15.293C16.1054 15.4805 16 15.7349 16 16.0001C16 16.2653 16.1054 16.5197 16.2929 16.7072C16.4804 16.8947 16.7348 17.0001 17 17.0001C17.2652 17.0001 17.5196 16.8947 17.7071 16.7072C17.8946 16.5197 18 16.2653 18 16.0001ZM11 16.0001C11 16.2653 11.1054 16.5197 11.2929 16.7072C11.4804 16.8947 11.7348 17.0001 12 17.0001H14C14.2652 17.0001 14.5196 16.8947 14.7071 16.7072C14.8946 16.5197 15 16.2653 15 16.0001C15 15.7349 14.8946 15.4805 14.7071 15.293C14.5196 15.1054 14.2652 15.0001 14 15.0001H12C11.7348 15.0001 11.4804 15.1054 11.2929 15.293C11.1054 15.4805 11 15.7349 11 16.0001Z" fill="#257FD2"/>
</g>
<defs>
<clipPath id="clip0_16_41">
<rect width="16" height="16" fill="white" transform="translate(5 5)"/>
</clipPath>
</defs>
</svg>
